<svg width="41" height="41" viewBox="0 0 41 41" fill="none" xmlns="http://www.w3.org/2000/svg">
<rect x="0.21875" y="0.444336" width="40" height="40" rx="10" transform="rotate(0.306342 0.21875 0.444336)" fill="#18335A"/>
<rect x="0.21875" y="0.444336" width="40" height="40" rx="10" transform="rotate(0.306342 0.21875 0.444336)" stroke="#DDDDDD"/>
<path d="M7.25391 15.1011L8.39629 15.1072L8.39017 16.252L7.24779 16.2459L7.25391 15.1011Z" fill="#F8991D"/>
<path d="M33.0233 23.9199L33.0562 17.7608C33.0577 17.4984 32.8268 17.2843 32.5396 17.2828L25.8301 17.2469C25.5437 17.2454 25.3114 17.4569 25.31 17.7193L25.2806 23.2097L26.423 23.2158L26.4169 24.3605L32.5016 24.3931C32.7896 24.3946 33.0219 24.1831 33.0233 23.9199ZM28.9369 20.4676L28.2777 20.464L28.2814 19.7793C28.2822 19.6225 28.1576 19.5874 28.1096 19.5871L27.544 19.5841C27.496 19.5838 27.371 19.6176 27.3702 19.7744L27.3591 21.8559C27.3584 21.9895 27.4509 22.038 27.5309 22.0385L28.0965 22.0415C28.1765 22.0419 28.2695 21.9952 28.2703 21.8608L28.2743 21.1136L28.9334 21.1172L28.9294 21.8643C28.925 22.7051 28.3634 22.7021 28.093 22.7007L27.2818 22.6963L27.2578 22.685C26.8845 22.6318 26.6972 22.3516 26.6999 21.8524L26.711 19.7709C26.7145 19.1157 27.0681 18.9648 27.2795 18.9347L27.3131 18.9293L27.3467 18.927L28.1131 18.9311C28.6811 18.9342 28.9437 19.206 28.9406 19.786L28.9369 20.4708L28.9369 20.4676ZM31.6345 19.5892L30.2484 22.0562L31.618 22.0635L31.6145 22.7227L29.3857 22.7108L29.3889 22.1132L30.7968 19.6039L29.4024 19.5964L29.4059 18.9372L31.6379 18.9492L31.6345 19.5892Z" fill="#F8991D"/>
<path d="M17.6215 17.2031L16.1135 17.1951L16.1245 15.1487L14.9805 15.1426L14.9315 24.3L16.0755 24.3062L17.5835 24.3142C18.2795 24.3179 19.1185 24.2008 19.1261 22.7737L19.1475 18.7833C19.1548 17.4065 18.3175 17.2068 17.6215 17.2031ZM17.9829 22.7675C17.981 23.1259 17.6832 23.1699 17.5896 23.1694L16.0816 23.1614L16.1074 18.3414L17.6154 18.3495C17.709 18.35 18.0062 18.4204 18.0043 18.7788L17.9829 22.7691" fill="white"/>
<path d="M12.2348 17.1743L11.1164 17.1684C10.4196 17.1646 9.58099 17.3554 9.57363 18.7321L9.55229 22.7225C9.54466 24.1497 10.3824 24.2757 11.0784 24.2795L12.1968 24.2854C12.8928 24.2892 13.731 24.172 13.7386 22.7449L13.76 18.7545C13.7673 17.3777 12.9308 17.1781 12.2348 17.1743ZM12.5962 22.7388C12.5943 23.0971 12.2973 23.1412 12.2029 23.1407L11.0845 23.1347C10.9909 23.1342 10.6936 23.087 10.6955 22.7286L10.7168 18.7382C10.7187 18.3807 11.0167 18.3126 11.1103 18.3131L12.2287 18.3191C12.3231 18.3196 12.6195 18.39 12.6176 18.7484L12.5962 22.7388Z" fill="white"/>
<path d="M24.0824 19.4521L24.0859 18.8081C24.0932 17.4321 23.2567 17.2317 22.5599 17.2279L21.7383 17.2235C21.0423 17.2198 20.2029 17.4113 20.1955 18.7873L20.1926 19.3297L20.1904 19.7489C20.1895 19.9137 20.2619 20.4317 21.0378 20.7518L22.5936 21.2466C22.5936 21.2466 22.9291 21.3372 22.9267 21.794L22.9213 22.7931C22.9194 23.1507 22.6224 23.1956 22.528 23.195L21.7056 23.1907C21.612 23.1902 21.3146 23.143 21.3166 22.7846L21.3205 22.0438L20.1773 22.0377L20.1734 22.7785C20.1657 24.2056 21.0043 24.3309 21.6995 24.3346L22.5211 24.339C23.2179 24.3428 24.0561 24.2264 24.0637 22.7993L24.0691 21.8001L24.0707 21.4873C24.0731 21.0457 23.9098 20.6208 23.0595 20.2994C22.21 19.9789 21.5525 19.805 21.48 19.7558C21.4066 19.7058 21.3328 19.6062 21.3342 19.3358L21.3371 18.7934C21.339 18.4358 21.637 18.3678 21.7306 18.3683L22.5522 18.3727C22.6458 18.3732 22.943 18.4444 22.9411 18.802L22.9376 19.446L24.0824 19.4521Z" fill="white"/>
<path d="M7.20805 23.4582C7.20344 24.3206 6.51693 24.9369 6.51693 24.9369L7.136 25.5626C7.136 25.5626 8.34404 24.8091 8.35123 23.4643L8.38497 17.1548L7.24258 17.1487L7.20805 23.4582Z" fill="white"/>
</svg>

